<?xml version="1.0" standalone="no"?>
<!DOCTYPE svg PUBLIC "-//W3C//DTD SVG 20010904//EN"
 "http://www.w3.org/TR/2001/REC-SVG-20010904/DTD/svg10.dtd">
<svg version="1.0" xmlns="http://www.w3.org/2000/svg"
 width="283.000000pt" height="283.000000pt" viewBox="0 0 283.000000 283.000000"
 preserveAspectRatio="xMidYMid meet">
<metadata>
Created by potrace 1.14, written by Peter Selinger 2001-2017
</metadata>
<g transform="translate(0.000000,283.000000) scale(0.100000,-0.100000)"
fill="#000000" stroke="none">
<path d="M1876 2623 c-6 -14 -5 -15 5 -6 7 7 10 15 7 18 -3 3 -9 -2 -12 -12z"/>
<path d="M1754 2621 c4 -6 1 -11 -6 -11 -9 0 -9 -3 2 -10 13 -8 12 -11 -5 -25
-16 -14 -17 -16 -3 -11 14 4 17 0 15 -17 -1 -12 -6 -25 -12 -29 -6 -5 -5 -11
4 -17 9 -6 10 -10 2 -12 -7 -3 -13 -14 -14 -27 -1 -24 -8 -27 -24 -11 -8 8
-13 8 -18 0 -4 -7 -1 -10 7 -9 7 2 12 -3 10 -10 -2 -10 2 -10 17 -2 26 14 31
13 25 -5 -4 -8 -11 -12 -17 -8 -6 3 -7 1 -3 -5 9 -15 1 -15 -27 -1 -20 9 -20
9 -5 -4 10 -8 14 -18 10 -22 -4 -4 3 -3 15 4 12 6 23 11 25 11 7 0 2 -156 -5
-167 -10 -17 48 3 85 29 14 10 29 18 33 18 4 0 20 9 36 21 16 11 29 16 29 11
0 -5 15 -9 33 -9 17 0 26 2 19 5 -6 2 -9 8 -6 14 4 6 -2 5 -15 -1 -11 -7 -21
-8 -21 -4 0 13 80 54 90 48 6 -4 9 -2 8 3 -2 6 -1 9 2 9 3 -1 16 8 29 20 13
12 29 19 35 16 6 -4 5 0 -1 9 -7 8 -10 18 -6 22 4 4 1 4 -8 1 -8 -3 -32 6 -53
20 -20 14 -41 25 -47 25 -6 0 -7 5 -4 10 4 6 11 7 17 4 7 -4 8 -2 4 4 -5 8
-13 9 -25 2 -12 -6 -22 -5 -29 2 -16 16 -15 31 1 22 8 -5 8 -2 -2 9 -7 9 -19
17 -25 16 -7 0 -6 -2 2 -6 6 -2 10 -9 7 -13 -3 -5 -12 -7 -20 -4 -8 4 -13 10
-10 14 3 4 -2 11 -11 14 -10 4 -13 2 -9 -7 4 -6 0 -4 -8 5 -8 10 -17 15 -20
12 -3 -4 -18 3 -34 13 -42 30 -77 47 -69 34z m-3 -164 c-10 -9 -11 -8 -5 6 3
10 9 15 12 12 3 -3 0 -11 -7 -18z"/>
<path d="M1815 2610 c3 -5 8 -10 11 -10 2 0 4 5 4 10 0 6 -5 10 -11 10 -5 0
-7 -4 -4 -10z"/>
<path d="M1870 2596 c0 -2 7 -7 16 -10 8 -3 12 -2 9 4 -6 10 -25 14 -25 6z"/>
<path d="M1913 2585 c0 -8 4 -12 9 -9 5 3 6 10 3 15 -9 13 -12 11 -12 -6z"/>
<path d="M1974 2562 c4 -6 2 -22 -4 -34 -11 -22 -10 -22 4 -4 19 24 20 32 4
42 -7 4 -8 3 -4 -4z"/>
<path d="M1709 2493 c-13 -16 -12 -17 4 -4 9 7 17 15 17 17 0 8 -8 3 -21 -13z"/>
<path d="M2027 2483 c3 -7 6 -13 8 -13 1 0 7 6 13 13 8 10 6 13 -7 13 -11 0
-17 -6 -14 -13z"/>
<path d="M2010 2355 c0 -5 5 -17 10 -25 5 -8 10 -10 10 -5 0 6 -5 17 -10 25
-5 8 -10 11 -10 5z"/>
<path d="M1700 2330 c8 -5 20 -10 25 -10 6 0 3 5 -5 10 -8 5 -19 10 -25 10 -5
0 -3 -5 5 -10z"/>
<path d="M1990 2330 c0 -5 5 -10 11 -10 5 0 7 5 4 10 -3 6 -8 10 -11 10 -2 0
-4 -4 -4 -10z"/>
<path d="M1901 2287 c-6 -6 -11 -18 -10 -26 0 -10 4 -7 9 6 6 15 15 21 25 17
8 -3 15 -4 15 -1 0 11 -28 15 -39 4z"/>
<path d="M1953 2275 c0 -8 4 -15 9 -15 4 0 8 4 8 9 0 6 -4 12 -8 15 -5 3 -9
-1 -9 -9z"/>
<path d="M1994 2279 c-3 -6 -2 -15 3 -20 5 -5 9 -1 9 11 0 23 -2 24 -12 9z"/>
<path d="M1936 2228 c3 -5 10 -6 15 -3 13 9 11 12 -6 12 -8 0 -12 -4 -9 -9z"/>
<path d="M1813 2215 c0 -8 4 -12 9 -9 5 3 6 10 3 15 -9 13 -12 11 -12 -6z"/>
<path d="M2016 2192 c-3 -5 1 -9 9 -9 8 0 12 4 9 9 -3 4 -7 8 -9 8 -2 0 -6 -4
-9 -8z"/>
<path d="M1930 2170 c0 -5 5 -10 11 -10 5 0 7 5 4 10 -3 6 -8 10 -11 10 -2 0
-4 -4 -4 -10z"/>
<path d="M2066 2151 c-17 -11 -33 -18 -38 -15 -4 3 -8 0 -8 -5 0 -6 -7 -11
-15 -11 -8 0 -15 -3 -15 -7 0 -5 -11 -13 -25 -20 -28 -13 -68 -6 -58 10 3 6 1
7 -6 3 -6 -4 -9 -12 -6 -17 4 -5 -4 -14 -17 -19 -23 -11 -23 -11 0 -6 12 2 22
0 22 -5 0 -5 -7 -9 -16 -9 -8 0 -12 -4 -9 -10 6 -9 -8 -14 -27 -11 -5 0 -8 -4
-8 -9 0 -5 -12 -10 -27 -10 -19 0 -24 -3 -15 -9 11 -7 11 -9 -2 -14 -9 -4 -16
1 -19 11 -3 12 -5 11 -6 -5 0 -13 -6 -23 -12 -23 -5 0 -7 5 -3 12 5 7 3 8 -5
3 -15 -9 -63 14 -55 26 3 5 -1 6 -9 3 -8 -3 -22 2 -31 11 -9 9 -16 13 -16 9 0
-3 -6 -2 -12 4 -23 18 -208 122 -217 122 -6 0 -33 -14 -61 -30 -28 -17 -56
-27 -62 -24 -6 4 -8 3 -5 -3 5 -8 -54 -47 -163 -106 -19 -11 -73 -42 -120 -70
-47 -27 -114 -66 -150 -85 -36 -20 -82 -46 -102 -59 l-38 -23 -1 -368 c-1
-432 -1 -433 3 -437 2 -1 36 -23 75 -47 40 -25 69 -49 65 -53 -4 -5 0 -6 9 -2
10 3 26 -3 39 -15 11 -11 27 -21 33 -22 7 -1 23 -8 37 -16 14 -8 28 -14 32
-15 16 -1 19 -15 4 -21 -9 -3 -16 -14 -15 -23 0 -10 2 -11 6 -3 2 7 13 17 23
22 13 7 22 4 36 -12 11 -12 13 -18 5 -13 -10 6 -12 4 -7 -4 6 -9 11 -9 21 -1
10 8 17 6 28 -10 8 -11 18 -20 23 -19 22 4 35 -2 28 -13 -5 -8 -2 -9 9 -5 10
4 20 0 26 -11 6 -9 11 -14 11 -9 0 4 14 0 32 -9 l32 -17 -22 -18 c-21 -17 -21
-18 -3 -16 11 0 18 4 15 8 -2 4 3 9 11 13 8 3 18 -2 23 -10 5 -9 12 -15 15
-15 18 2 25 0 45 -19 12 -12 22 -18 22 -14 0 3 11 -1 25 -10 14 -9 25 -12 25
-7 0 5 11 12 25 15 14 4 25 11 25 16 0 6 11 3 24 -5 27 -18 48 -3 27 18 -9 9
-11 8 -5 -6 5 -13 2 -16 -10 -11 -9 3 -16 9 -16 13 0 9 51 35 63 33 4 -1 17 7
29 17 11 11 36 27 54 36 18 8 36 20 39 25 4 6 10 8 15 5 4 -3 11 2 14 11 3 8
10 13 15 10 5 -4 16 0 24 8 8 8 17 12 21 9 8 -9 -14 -34 -25 -27 -5 3 -6 -2
-3 -10 5 -13 10 -12 25 9 20 24 49 25 49 1 0 -6 9 -12 19 -13 10 -1 52 -21 93
-46 40 -24 99 -58 131 -76 l57 -32 0 182 c0 161 2 183 18 195 16 13 16 14 -2
8 -14 -5 -17 -3 -14 12 2 10 10 18 17 16 7 -1 10 2 6 8 -3 6 -9 8 -13 6 -4 -2
-8 7 -8 20 -2 25 11 33 19 12 2 -7 4 1 4 19 0 26 -2 29 -12 17 -9 -13 -11 -10
-10 15 0 36 2 37 28 14 14 -13 18 -13 11 -3 -5 8 -9 26 -9 40 -1 19 -6 24 -21
22 -17 -2 -17 -1 4 17 12 10 22 23 22 27 0 4 -5 3 -12 -4 -17 -17 -24 -15 -25
10 -2 18 0 20 7 8 8 -13 10 -12 10 3 0 9 -6 17 -12 17 -10 0 -9 3 1 9 11 7 11
9 0 14 -10 4 -9 6 4 6 9 1 17 4 18 9 0 4 2 15 4 24 2 10 -5 20 -16 23 -20 7
-27 35 -8 35 5 0 7 -6 3 -12 -6 -10 -5 -10 7 -1 19 16 17 59 -2 56 -10 -2 -14
8 -15 32 0 19 4 35 9 35 5 0 7 -7 4 -14 -4 -10 -1 -13 9 -9 19 7 18 20 -4 27
-10 4 -19 13 -19 21 0 12 4 12 20 -2 19 -18 19 -17 6 5 -8 12 -18 22 -24 22
-5 1 1 7 14 14 23 13 23 14 5 20 -14 4 -19 15 -20 41 0 19 4 35 9 35 5 0 7 -7
4 -14 -4 -10 -1 -13 9 -9 19 7 18 20 -4 27 -10 4 -19 13 -19 21 0 12 4 12 20
-2 19 -18 19 -17 6 5 -8 12 -18 22 -24 22 -5 1 1 7 14 14 23 13 23 14 5 20
-20 6 -31 46 -13 46 6 0 8 -4 5 -9 -3 -5 2 -15 12 -22 15 -13 16 -12 4 3 -7 9
-9 19 -4 22 12 7 9 41 -3 41 -6 0 -9 -6 -7 -12 2 -7 -1 -13 -6 -13 -12 0 -12
32 1 48 5 7 6 12 0 12 -5 0 -10 18 -10 40 0 28 4 40 13 40 8 0 14 3 15 8 0 4
2 15 4 24 2 10 -5 20 -15 23 -14 5 -18 17 -18 68 -1 138 -2 167 -9 167 -5 0
-21 -9 -37 -19z m-609 -28 c17 -13 35 -23 38 -23 4 0 45 -22 92 -50 47 -27 87
-50 88 -50 2 0 19 -10 37 -23 30 -20 34 -27 34 -69 0 -26 -2 -46 -5 -44 -3 2
-15 -8 -25 -23 -20 -26 -20 -26 0 -8 25 21 41 23 24 2 -7 -8 -8 -15 -3 -15 5
0 9 -14 9 -30 0 -22 -4 -29 -13 -25 -8 2 -11 0 -8 -5 3 -6 2 -10 -4 -10 -5 0
-15 8 -20 18 -6 9 -11 12 -11 6 0 -16 25 -35 41 -32 9 2 13 -17 14 -75 2 -83
-6 -100 -33 -69 -9 10 -22 17 -28 15 -7 -2 -18 2 -26 9 -15 14 -36 27 -145 84
-39 21 -69 42 -66 48 3 5 1 6 -6 2 -21 -13 -26 30 -25 204 1 94 -2 173 -6 175
-3 2 -6 -81 -5 -184 l1 -188 -155 -91 c-86 -50 -164 -94 -173 -97 -16 -7 -63
17 -218 108 -19 11 -57 33 -84 48 l-48 27 73 42 c41 23 81 46 89 50 8 5 51 30
95 56 44 26 100 58 125 72 25 14 77 44 115 67 39 23 77 45 85 48 8 4 33 18 55
31 47 28 50 28 92 -1z m473 -47 c0 -11 -19 -15 -25 -6 -3 5 1 10 9 10 9 0 16
-2 16 -4z m203 -160 c6 -14 0 -26 -13 -26 -3 0 -6 9 -6 20 0 23 11 27 19 6z
m-665 -197 c31 -17 78 -43 104 -58 27 -14 48 -29 48 -33 0 -5 7 -8 15 -8 8 0
15 -5 15 -11 0 -5 5 -7 10 -4 6 3 10 1 10 -5 0 -6 4 -8 10 -5 5 3 15 -3 22
-15 7 -11 18 -20 24 -20 19 0 24 -28 7 -34 -11 -5 -14 -2 -9 9 3 9 2 14 -3 11
-11 -7 -11 -55 0 -62 13 -8 11 -22 -3 -27 -7 -2 -3 -2 10 0 26 4 28 -5 5 -24
-10 -7 -13 -13 -8 -12 24 3 27 -2 9 -15 -14 -11 -21 -11 -26 -3 -6 9 -8 9 -8
0 0 -17 23 -29 28 -15 5 16 23 15 20 0 -5 -22 -32 -38 -41 -25 -6 8 -7 8 -5
-2 2 -8 12 -15 21 -17 9 -1 15 2 11 7 -3 5 -1 9 4 9 11 0 10 -95 -1 -106 -4
-5 -5 -1 -2 7 3 9 -2 22 -12 30 -16 12 -17 12 -7 -1 12 -17 17 -63 5 -56 -4 3
-13 0 -21 -5 -12 -7 -11 -8 5 -6 11 1 25 6 31 9 6 4 10 -5 8 -25 -1 -18 -2
-34 -4 -37 -1 -3 -2 -8 -1 -13 0 -4 -2 -6 -6 -5 -13 3 -63 -25 -63 -34 0 -5
-4 -7 -9 -3 -5 3 -15 0 -23 -7 -25 -24 -48 -40 -48 -35 0 4 10 15 22 27 12 11
17 20 10 20 -6 0 -14 -5 -17 -10 -4 -6 -11 -7 -17 -4 -6 4 -8 2 -5 -4 9 -13
-2 -44 -13 -37 -4 2 -16 -4 -27 -15 -19 -17 -22 -17 -38 -2 -10 9 -14 11 -10
4 4 -8 2 -13 -6 -11 -24 3 -39 -1 -39 -9 0 -5 7 -9 15 -9 8 0 12 3 10 7 -2 3
5 6 16 6 10 0 19 -4 19 -8 0 -4 -5 -8 -12 -8 -6 0 -20 -8 -31 -17 -12 -10 -17
-12 -12 -4 5 9 3 12 -6 9 -8 -3 -13 -11 -11 -17 1 -7 -2 -10 -7 -7 -5 4 -13 1
-17 -5 -5 -9 -11 -6 -21 7 -8 10 -16 18 -18 17 -11 -6 -25 -2 -40 13 -13 13
-13 19 -3 32 8 10 9 13 1 9 -6 -4 -14 -1 -17 5 -3 7 -4 4 -3 -6 1 -10 -4 -21
-11 -23 -8 -3 -10 1 -6 11 5 12 2 15 -11 9 -12 -4 -23 0 -31 11 -7 10 -17 15
-23 12 -6 -4 -19 2 -31 14 -11 11 -20 17 -20 13 0 -3 -9 2 -20 12 -11 10 -20
14 -20 9 -1 -5 -9 1 -20 14 -10 12 -25 21 -32 20 -10 -2 -14 38 -16 197 l-2
200 121 70 c174 101 214 124 217 124 2 1 29 -13 60 -30z m-698 1 c14 -11 28
-20 32 -20 14 0 148 -82 148 -91 0 -5 4 -8 8 -6 4 1 29 -9 55 -23 l47 -25 -2
-175 c0 -96 -5 -183 -10 -194 -7 -13 -7 -16 1 -12 6 4 11 3 11 -3 0 -6 -11
-13 -25 -17 -14 -3 -25 -10 -25 -16 0 -5 -5 -6 -10 -3 -6 4 -8 10 -5 15 3 4
-2 11 -10 14 -13 5 -14 2 -4 -15 6 -11 9 -22 7 -23 -34 -23 -56 -31 -71 -28
-9 2 -15 8 -12 13 4 5 1 9 -4 9 -17 0 -13 -20 4 -27 12 -4 10 -9 -11 -19 -33
-18 -44 -17 -21 0 10 8 14 17 8 20 -5 3 -15 -7 -22 -23 -11 -25 -15 -27 -25
-14 -9 14 -11 14 -10 -3 1 -10 -3 -20 -9 -21 -5 -1 -9 4 -7 11 1 7 -4 13 -12
13 -11 0 -12 -5 -5 -18 11 -22 12 -32 1 -25 -5 3 -16 -4 -25 -15 -15 -16 -20
-18 -31 -7 -17 17 -19 748 -2 748 6 0 22 -9 36 -20z m976 -225 c-1 -20 -3 -22
-15 -11 -7 8 -10 19 -7 25 12 19 24 12 22 -14z m390 -144 c0 -11 -5 -17 -13
-14 -17 6 -17 20 0 26 6 3 12 6 12 6 1 1 1 -7 1 -18z m-3 -75 c6 -14 0 -26
-13 -26 -3 0 -6 9 -6 20 0 23 11 27 19 6z m3 -165 c0 -11 -5 -17 -13 -14 -17
6 -17 20 0 26 6 3 12 6 12 6 1 1 1 -7 1 -18z m-39 -362 c1 -98 -1 -179 -4
-179 -3 0 -25 14 -50 30 -24 17 -47 30 -51 30 -4 0 -30 15 -58 33 -28 19 -58
37 -68 40 -14 6 -16 10 -7 21 8 10 9 16 1 21 -6 3 -8 10 -5 15 3 4 -3 7 -12 6
-9 0 -18 5 -20 12 -3 7 1 10 11 6 10 -4 16 -1 16 8 0 8 10 19 23 25 25 12 43
12 39 0 -1 -5 2 -5 8 -2 6 4 9 14 5 22 -4 13 -3 14 10 3 13 -11 14 -10 9 4 -5
12 -2 15 12 9 11 -4 15 -3 10 5 -4 7 7 6 29 -3 19 -9 35 -13 35 -10 0 3 -12
10 -27 16 -21 8 -24 12 -13 19 9 5 20 4 28 -3 18 -15 42 -18 42 -5 0 6 -7 8
-15 5 -23 -9 -29 13 -9 31 17 16 17 16 5 -1 -12 -15 -12 -17 3 -11 9 3 16 12
16 20 0 8 6 11 17 7 12 -5 14 -3 8 8 -5 8 -5 11 1 6 5 -5 10 -89 11 -188z
m-253 -10 c9 1 8 -13 -1 -16 -4 -2 -21 9 -38 23 -16 14 -24 23 -17 19 6 -3 12
-1 12 6 0 7 9 2 19 -10 11 -12 22 -22 25 -22z"/>
<path d="M1706 1908 c3 -4 11 -5 19 -1 21 7 19 12 -4 10 -11 0 -18 -5 -15 -9z"/>
<path d="M1674 1868 c-4 -7 -4 -10 1 -6 4 4 15 2 24 -5 14 -11 14 -10 2 6 -16
20 -18 21 -27 5z"/>
<path d="M1710 1803 c8 -3 19 -11 23 -17 6 -7 7 -6 4 4 -2 8 -12 16 -23 17
-13 2 -15 1 -4 -4z"/>
<path d="M1701 1723 c-1 -7 7 -17 17 -22 14 -7 18 -6 18 9 0 14 -4 16 -12 9
-8 -7 -14 -6 -17 3 -4 9 -6 10 -6 1z"/>
<path d="M1723 1669 c3 -9 0 -22 -6 -28 -8 -8 -7 -16 6 -28 9 -10 17 -12 17
-6 0 6 -6 14 -12 16 -10 4 -10 8 1 15 10 8 11 14 1 28 -8 14 -10 14 -7 3z"/>
<path d="M1686 1648 c3 -5 10 -6 15 -3 13 9 11 12 -6 12 -8 0 -12 -4 -9 -9z"/>
<path d="M1710 1323 c8 -3 19 -11 23 -17 6 -7 7 -6 4 4 -2 8 -12 16 -23 17
-13 2 -15 1 -4 -4z"/>
<path d="M1677 1282 c-15 -16 -15 -19 -2 -19 8 0 13 3 10 5 -3 3 0 11 6 19 17
20 5 16 -14 -5z"/>
<path d="M1697 1261 c-4 -17 -3 -21 5 -13 5 5 8 16 6 23 -3 8 -7 3 -11 -10z"/>
<path d="M1107 1209 c7 -7 15 -10 18 -7 3 3 -2 9 -12 12 -14 6 -15 5 -6 -5z"/>
<path d="M1721 1211 c-8 -5 -21 -7 -30 -4 -14 4 -14 3 -1 -6 8 -6 11 -11 6
-11 -5 0 -3 -7 4 -15 7 -8 8 -15 2 -15 -5 0 -17 10 -27 23 -15 21 -15 20 0 -7
16 -26 16 -28 1 -23 -39 16 -51 19 -37 9 11 -8 10 -11 -4 -19 -15 -9 -16 -11
-1 -16 9 -4 15 -2 13 5 -1 6 4 13 12 16 9 3 11 0 6 -8 -9 -15 48 14 62 32 8
10 15 49 9 48 -1 0 -7 -4 -15 -9z m1 -18 c-6 -2 -9 -10 -6 -15 4 -7 2 -8 -5
-4 -13 9 -5 26 12 25 9 0 8 -2 -1 -6z"/>
<path d="M1145 1190 c-3 -6 1 -7 9 -4 18 7 21 14 7 14 -6 0 -13 -4 -16 -10z"/>
<path d="M1186 1152 c-3 -5 1 -9 9 -9 8 0 12 4 9 9 -3 4 -7 8 -9 8 -2 0 -6 -4
-9 -8z"/>
<path d="M1150 1136 c0 -2 7 -9 15 -16 13 -11 14 -10 9 4 -5 14 -24 23 -24 12z"/>
<path d="M1256 1132 c-2 -4 -1 -14 4 -22 7 -11 9 -9 7 8 -1 24 -3 26 -11 14z"/>
<path d="M1200 1114 c6 -6 7 -14 3 -17 -3 -4 -3 -7 0 -7 3 0 11 8 16 18 7 14
6 18 -9 18 -13 0 -16 -4 -10 -12z"/>
<path d="M1227 1096 c-4 -10 -1 -13 8 -9 8 3 12 9 9 14 -7 12 -11 11 -17 -5z"/>
<path d="M1460 1090 c-9 -6 -10 -10 -3 -10 6 0 15 5 18 10 8 12 4 12 -15 0z"/>
<path d="M1550 1090 c0 -5 5 -10 10 -10 6 0 10 5 10 10 0 6 -4 10 -10 10 -5 0
-10 -4 -10 -10z"/>
<path d="M1263 1075 c0 -7 8 -10 19 -7 10 2 18 6 18 7 0 1 -8 5 -18 7 -11 3
-19 0 -19 -7z"/>
<path d="M1514 1075 c1 -8 6 -18 11 -22 4 -5 5 -2 0 6 -6 11 -4 13 8 8 23 -9
21 0 -2 13 -15 7 -19 7 -17 -5z"/>
<path d="M1436 1066 c6 -16 4 -18 -12 -12 -15 6 -17 5 -6 -5 9 -10 15 -10 24
-1 9 9 9 15 -1 25 -10 10 -11 8 -5 -7z"/>
<path d="M1350 1051 c-14 -27 -13 -29 11 -42 15 -8 19 -8 15 0 -10 16 23 26
37 12 9 -9 8 -11 -5 -6 -19 7 -23 -2 -10 -21 5 -8 12 -6 24 6 17 16 17 17 -7
30 -20 11 -27 11 -40 0 -8 -7 -19 -10 -22 -6 -4 4 -3 10 2 14 11 7 18 32 10
32 -2 0 -9 -9 -15 -19z"/>
<path d="M944 1138 c3 -15 26 -23 26 -8 0 6 -4 9 -9 6 -5 -4 -12 -1 -14 4 -3
6 -4 5 -3 -2z"/>
<path d="M855 1131 c-3 -5 -2 -12 3 -15 5 -3 9 1 9 9 0 17 -3 19 -12 6z"/>
<path d="M925 1110 c3 -5 8 -10 11 -10 2 0 4 5 4 10 0 6 -5 10 -11 10 -5 0 -7
-4 -4 -10z"/>
<path d="M837 1103 c-10 -9 -9 -23 1 -23 5 0 9 7 9 15 0 17 -1 18 -10 8z"/>
<path d="M754 1039 c0 -10 4 -19 8 -19 4 0 8 6 8 14 0 8 -4 17 -8 20 -4 2 -8
-4 -8 -15z"/>
<path d="M1970 830 c0 -4 7 -7 15 -6 23 3 26 12 5 13 -11 1 -20 -2 -20 -7z"/>
<path d="M1883 813 c-27 -19 -30 -33 -5 -33 15 0 15 2 2 11 -12 9 -11 10 5 6
15 -3 21 1 21 14 0 11 0 19 -1 18 0 0 -10 -7 -22 -16z"/>
<path d="M1936 811 c-3 -5 2 -15 12 -22 15 -13 16 -12 4 3 -10 13 -10 17 0 21
9 4 9 6 1 6 -6 1 -14 -3 -17 -8z"/>
<path d="M1973 795 c0 -8 4 -12 9 -9 5 3 6 10 3 15 -9 13 -12 11 -12 -6z"/>
<path d="M1910 780 c-9 -6 -10 -10 -3 -10 6 0 15 5 18 10 8 12 4 12 -15 0z"/>
<path d="M1957 2145 c-8 -19 12 -30 26 -16 9 9 8 11 -6 5 -13 -5 -16 -2 -11
10 3 9 4 16 1 16 -3 0 -7 -7 -10 -15z"/>
<path d="M1856 2112 c-3 -5 1 -9 9 -9 8 0 12 4 9 9 -3 4 -7 8 -9 8 -2 0 -6 -4
-9 -8z"/>
<path d="M1926 2108 c3 -4 9 -8 15 -8 5 0 9 4 9 8 0 5 -7 9 -15 9 -8 0 -12 -4
-9 -9z"/>
<path d="M1830 2051 c0 -5 7 -11 14 -14 10 -4 13 -1 9 9 -6 15 -23 19 -23 5z"/>
<path d="M2121 2038 c-1 -10 4 -18 10 -18 5 0 7 -6 3 -12 -4 -7 -3 -9 1 -5 12
10 16 39 5 32 -5 -3 -11 1 -13 7 -3 8 -6 6 -6 -4z"/>
<path d="M1791 2031 c-9 -6 -6 -8 13 -8 14 0 23 3 20 8 -7 11 -15 11 -33 0z"/>
<path d="M2120 1956 c0 -2 7 -7 16 -10 8 -3 12 -2 9 4 -6 10 -25 14 -25 6z"/>
<path d="M2125 1846 c4 -34 11 -42 18 -22 3 8 0 22 -8 32 -11 16 -12 15 -10
-10z"/>
<path d="M2140 1796 c0 -2 7 -9 15 -16 13 -11 14 -10 9 4 -5 14 -24 23 -24 12z"/>
<path d="M2166 1688 c3 -5 10 -6 15 -3 13 9 11 12 -6 12 -8 0 -12 -4 -9 -9z"/>
<path d="M2156 1628 c3 -5 10 -6 15 -3 13 9 11 12 -6 12 -8 0 -12 -4 -9 -9z"/>
<path d="M2130 1551 c0 -6 4 -13 10 -16 6 -3 7 1 4 9 -7 18 -14 21 -14 7z"/>
<path d="M2166 1528 c3 -5 10 -6 15 -3 13 9 11 12 -6 12 -8 0 -12 -4 -9 -9z"/>
<path d="M2156 1468 c3 -5 10 -6 15 -3 13 9 11 12 -6 12 -8 0 -12 -4 -9 -9z"/>
<path d="M2175 1331 c-3 -5 -2 -12 3 -15 5 -3 9 1 9 9 0 17 -3 19 -12 6z"/>
<path d="M2146 1312 c-3 -5 1 -9 9 -9 8 0 12 4 9 9 -3 4 -7 8 -9 8 -2 0 -6 -4
-9 -8z"/>
<path d="M2155 1241 c4 -8 2 -17 -6 -22 -9 -6 -10 -9 -2 -9 19 0 27 21 13 33
-10 9 -11 9 -5 -2z"/>
<path d="M734 912 c4 -3 14 -7 22 -8 9 -1 13 0 10 4 -4 3 -14 7 -22 8 -9 1
-13 0 -10 -4z"/>
<path d="M775 890 c-3 -5 -1 -10 4 -10 6 0 11 5 11 10 0 6 -2 10 -4 10 -3 0
-8 -4 -11 -10z"/>
<path d="M810 870 c0 -5 5 -10 11 -10 5 0 7 5 4 10 -3 6 -8 10 -11 10 -2 0 -4
-4 -4 -10z"/>
<path d="M831 843 c-1 -17 16 -25 25 -12 4 7 3 9 -4 5 -5 -3 -13 0 -15 6 -4 9
-6 10 -6 1z"/>
<path d="M875 823 c0 -27 18 -42 30 -24 3 7 0 8 -9 5 -9 -3 -16 -2 -16 4 0 6
5 12 11 14 7 2 6 8 -3 15 -11 10 -14 7 -13 -14z"/>
<path d="M796 808 c3 -4 11 -5 19 -1 21 7 19 12 -4 10 -11 0 -18 -5 -15 -9z"/>
<path d="M944 802 c3 -6 2 -13 -4 -17 -5 -3 -10 -12 -10 -18 0 -7 5 -4 11 5 5
9 16 15 24 12 8 -4 12 -11 8 -17 -3 -6 -1 -7 5 -3 16 10 16 11 -14 31 -15 9
-24 12 -20 7z"/>
<path d="M1030 750 c0 -5 5 -10 11 -10 5 0 7 5 4 10 -3 6 -8 10 -11 10 -2 0
-4 -4 -4 -10z"/>
<path d="M1013 725 c0 -8 4 -12 9 -9 5 3 6 10 3 15 -9 13 -12 11 -12 -6z"/>
<path d="M1783 723 c4 -3 1 -13 -6 -22 -11 -14 -10 -14 5 -2 16 12 16 31 1 31
-4 0 -3 -3 0 -7z"/>
<path d="M1701 694 c-6 -15 -10 -29 -7 -31 2 -2 7 5 11 16 3 12 11 19 16 16 5
-3 6 1 3 9 -8 21 -9 20 -23 -10z"/>
<path d="M990 706 c0 -2 8 -10 18 -17 15 -13 16 -12 3 4 -13 16 -21 21 -21 13z"/>
<path d="M1057 703 c-3 -5 6 -9 20 -10 19 -1 22 1 12 8 -17 11 -26 11 -32 2z"/>
<path d="M1133 688 c4 -11 0 -18 -11 -20 -14 -3 -13 -5 5 -10 17 -5 21 -2 18
14 -3 12 -7 23 -11 27 -4 3 -4 -2 -1 -11z"/>
<path d="M1665 680 c-10 -11 -21 -17 -25 -15 -4 3 -13 -2 -20 -10 -9 -10 -9
-15 -1 -15 6 0 11 5 11 11 0 5 4 8 8 5 9 -6 22 2 41 27 18 23 8 22 -14 -3z"/>
<path d="M1165 671 c-8 -13 25 -31 56 -31 5 0 7 -4 4 -10 -4 -6 1 -7 11 -3 15
6 15 7 -1 16 -15 8 -36 14 -58 16 -5 1 -5 6 -2 11 3 6 4 10 1 10 -3 0 -7 -4
-11 -9z"/>
<path d="M1807 669 c7 -7 15 -10 18 -7 3 3 -2 9 -12 12 -14 6 -15 5 -6 -5z"/>
<path d="M1146 628 c3 -5 10 -6 15 -3 13 9 11 12 -6 12 -8 0 -12 -4 -9 -9z"/>
<path d="M1598 623 c13 -3 19 -9 16 -15 -4 -7 -2 -8 5 -4 17 11 3 26 -22 25
-22 -2 -22 -2 1 -6z"/>
<path d="M1535 611 c-3 -5 -2 -12 3 -15 5 -3 9 1 9 9 0 17 -3 19 -12 6z"/>
<path d="M1566 593 c-6 -14 -5 -15 5 -6 7 7 10 15 7 18 -3 3 -9 -2 -12 -12z"/>
<path d="M1304 581 c0 -10 6 -18 13 -18 7 0 13 4 13 7 0 4 -6 12 -13 18 -10 8
-13 6 -13 -7z"/>
<path d="M1267 569 c7 -7 15 -10 18 -7 3 3 -2 9 -12 12 -14 6 -15 5 -6 -5z"/>
<path d="M1339 563 c0 -5 -2 -16 -4 -26 -2 -11 -1 -16 3 -13 8 8 14 46 7 46
-3 0 -5 -3 -6 -7z"/>
<path d="M1479 543 c-13 -16 -12 -17 4 -4 16 13 21 21 13 21 -2 0 -10 -8 -17
-17z"/>
<path d="M1375 541 c-3 -5 0 -13 6 -17 7 -4 9 -3 5 4 -3 5 0 13 6 15 9 4 10 6
1 6 -6 1 -14 -3 -18 -8z"/>
<path d="M774 252 c-17 -2 -21 -8 -16 -24 3 -14 1 -19 -6 -14 -9 5 -9 0 -2
-18 7 -19 6 -26 -2 -26 -9 0 -9 -3 0 -12 9 -9 5 -17 -15 -35 -14 -13 -32 -22
-40 -19 -9 4 -13 0 -11 -12 1 -9 -1 -22 -5 -28 -4 -8 4 -13 23 -16 17 -3 30
-1 30 4 0 4 9 8 19 8 10 0 22 7 25 16 3 9 11 12 18 8 7 -4 10 -4 6 1 -9 9 9
45 21 45 5 0 8 -11 7 -24 -2 -16 2 -23 13 -22 9 0 15 -5 13 -12 -1 -6 1 -11 5
-10 5 1 24 -3 44 -9 46 -14 115 -8 145 12 14 9 30 13 36 9 7 -5 8 -3 3 6 -4 7
-2 15 4 20 7 4 13 23 14 42 1 20 6 34 10 31 5 -3 6 -8 3 -11 -6 -6 34 -37 48
-37 5 0 11 -7 13 -15 4 -13 3 -13 -6 0 -10 13 -11 13 -11 0 0 -13 -1 -13 -10
0 -6 9 -10 11 -10 3 0 -7 -6 -10 -13 -7 -9 3 -13 -5 -12 -23 0 -36 9 -42 52
-36 20 3 41 -1 50 -9 13 -10 15 -10 9 0 -6 9 -1 12 16 10 12 -2 29 -7 37 -12
10 -7 12 -5 6 3 -5 9 -1 12 11 11 44 -5 62 7 74 48 8 29 5 36 -20 62 -15 16
-31 26 -34 22 -12 -11 -33 -10 -33 2 0 14 34 15 55 3 13 -9 14 -7 16 36 2 27
0 28 -31 25 -18 -2 -33 -1 -33 3 0 9 -47 5 -57 -4 -3 -4 -13 -2 -20 5 -9 7
-17 8 -21 2 -8 -11 -32 -11 -49 -1 -6 4 -15 2 -19 -4 -4 -8 -3 -9 4 -5 17 10
15 -3 -2 -20 -16 -15 -27 -18 -25 -6 1 4 1 14 0 23 -1 23 -51 13 -51 -10 0 -9
-6 -23 -12 -30 -10 -11 -10 -13 0 -7 6 4 12 3 12 -3 0 -5 -6 -12 -12 -14 -10
-4 -9 -6 1 -6 11 -1 11 -4 0 -18 -9 -11 -10 -14 -2 -9 9 5 11 2 7 -8 -3 -9
-10 -13 -15 -10 -5 3 -9 0 -9 -6 0 -6 -4 -8 -10 -5 -5 3 -10 0 -10 -7 0 -9 -3
-9 -10 2 -5 8 -10 10 -10 3 0 -12 -17 -12 -37 0 -6 4 -14 1 -16 -5 -4 -10 -6
-10 -6 0 -1 7 -5 11 -10 8 -5 -3 -14 1 -21 9 -7 8 -9 15 -5 15 4 0 1 8 -6 17
-12 15 -12 16 1 8 13 -8 13 -7 1 8 -11 14 -11 17 0 17 12 0 12 2 1 9 -8 4 -13
11 -13 15 3 24 -1 34 -19 39 -14 4 -22 -2 -29 -22 -8 -23 -9 -24 -10 -4 -1 26
-8 30 -37 25z m451 -70 c-3 -3 -11 0 -18 7 -9 10 -8 11 6 5 10 -3 15 -9 12
-12z m45 2 c0 -8 -6 -11 -15 -8 -8 4 -15 9 -15 13 0 4 7 8 15 8 8 0 15 -6 15
-13z m-453 -36 c-3 -8 -6 -5 -6 6 -1 11 2 17 5 13 3 -3 4 -12 1 -19z m427 -37
c-9 -9 -34 -9 -34 -1 0 5 9 8 20 7 10 -1 17 -3 14 -6z"/>
<path d="M1403 223 c-17 -17 -27 -33 -22 -35 5 -2 10 -15 11 -30 1 -15 6 -24
10 -22 4 3 8 0 8 -5 0 -6 3 -10 8 -10 16 3 32 -1 32 -9 0 -4 -13 -8 -30 -8
-18 -1 -27 2 -23 9 3 5 1 7 -4 4 -12 -7 -5 -59 9 -68 4 -3 25 -5 46 -4 23 1
42 -5 50 -14 11 -14 11 -14 7 -1 -4 12 2 16 30 16 19 0 35 -5 35 -11 0 -5 5
-3 10 5 5 8 10 12 10 8 0 -4 12 -1 27 7 34 18 41 78 12 99 -11 7 -16 16 -12
20 4 3 -6 5 -23 4 -16 -2 -30 2 -31 7 -2 6 11 11 27 11 46 2 47 3 45 25 -2 25
-30 45 -40 29 -5 -8 -11 -7 -21 1 -11 9 -17 9 -28 0 -11 -9 -15 -9 -19 1 -4 9
-6 9 -6 -2 -1 -13 -3 -13 -10 -1 -8 12 -12 12 -25 2 -9 -8 -16 -9 -16 -4 0 20
-38 7 -67 -24z m82 -33 c3 -5 1 -10 -4 -10 -6 0 -11 5 -11 10 0 6 2 10 4 10 3
0 8 -4 11 -10z m55 -2 c0 -4 -9 -8 -20 -8 -11 0 -20 4 -20 8 0 4 9 8 20 8 11
0 20 -4 20 -8z m24 -79 c3 -3 -5 -5 -19 -5 -13 0 -22 3 -19 7 4 8 30 6 38 -2z"/>
<path d="M1852 235 c-11 -13 -22 -22 -26 -20 -3 3 -4 2 -1 -1 5 -8 -26 -64
-36 -64 -4 0 -12 -13 -19 -30 -7 -16 -16 -30 -20 -30 -4 0 -10 -10 -14 -22 -5
-19 -8 -20 -15 -8 -7 10 -6 17 2 22 8 5 5 9 -8 13 -11 4 -29 11 -40 17 -11 6
-17 8 -14 4 4 -4 3 -21 -1 -39 l-7 -32 69 0 c57 0 72 3 84 19 10 14 14 16 14
5 0 -9 3 -10 8 -4 4 6 21 12 37 13 23 1 26 -1 15 -8 -8 -5 -10 -10 -4 -10 6 0
14 3 18 7 13 14 51 10 76 -8 32 -24 78 -16 58 9 -10 12 -10 14 -1 8 9 -5 11
-2 7 9 -4 9 -9 13 -12 10 -8 -8 -82 107 -75 118 3 6 1 7 -5 3 -7 -4 -12 -1
-12 7 0 8 -13 20 -30 25 -26 10 -32 8 -48 -13z m42 -71 c9 -3 16 -10 16 -16 0
-5 -4 -7 -9 -4 -5 4 -11 0 -14 -6 -3 -10 -8 -10 -18 1 -12 12 -12 13 0 6 11
-6 13 -4 8 8 -7 19 -6 20 17 11z"/>
<path d="M2055 238 c-9 -30 -10 -98 0 -102 6 -3 6 -5 0 -5 -6 -1 -9 -20 -7
-45 4 -45 3 -44 57 -37 6 0 9 26 8 58 -1 32 -2 77 -2 101 -1 38 -3 42 -26 42
-14 0 -27 -6 -30 -12z"/>
</g>
</svg>
