<?xml version="1.0" encoding="UTF-8" standalone="no"?>
<svg
   xmlns:dc="http://purl.org/dc/elements/1.1/"
   xmlns:cc="http://creativecommons.org/ns#"
   xmlns:rdf="http://www.w3.org/1999/02/22-rdf-syntax-ns#"
   xmlns:svg="http://www.w3.org/2000/svg"
   xmlns="http://www.w3.org/2000/svg"
   xmlns:sodipodi="http://sodipodi.sourceforge.net/DTD/sodipodi-0.dtd"
   xmlns:inkscape="http://www.inkscape.org/namespaces/inkscape"
   class="ionicon"
   viewBox="0 0 416.02298 480.00119"
   version="1.1"
   id="svg6"
   sodipodi:docname="finger-print-outline.svg"
   width="416.02298"
   height="480.00119"
   inkscape:version="1.0.2 (1.0.2+r75+1)">
  <metadata
     id="metadata12">
    <rdf:RDF>
      <cc:Work
         rdf:about="">
        <dc:format>image/svg+xml</dc:format>
        <dc:type
           rdf:resource="http://purl.org/dc/dcmitype/StillImage" />
        <dc:title>Finger Print</dc:title>
      </cc:Work>
    </rdf:RDF>
  </metadata>
  <defs
     id="defs10" />
  <sodipodi:namedview
     pagecolor="#ffffff"
     bordercolor="#666666"
     borderopacity="1"
     objecttolerance="10"
     gridtolerance="10"
     guidetolerance="10"
     inkscape:pageopacity="0"
     inkscape:pageshadow="2"
     inkscape:window-width="1848"
     inkscape:window-height="1016"
     id="namedview8"
     showgrid="false"
     fit-margin-top="0"
     fit-margin-left="0"
     fit-margin-right="0"
     fit-margin-bottom="0"
     inkscape:zoom="1.6835938"
     inkscape:cx="208.01704"
     inkscape:cy="240.0012"
     inkscape:window-x="72"
     inkscape:window-y="27"
     inkscape:window-maximized="1"
     inkscape:current-layer="svg6" />
  <title
     id="title2">Finger Print</title>
  <path
     d="m 342.43704,59.281199 a 10.45,10.45 0 0 1 -5.32,-1.44 c -44.38,-23.76 -82.75,-33.84 -128.75,-33.84 -45.77,0 -89.23,11.28 -128.76,33.84 -5.59,3.16 -12.48,0.96 -15.72,-4.84 a 12.4,12.4 0 0 1 4.63,-16.32 281.81,281.81 0 0 1 139.85,-36.67999977 c 49.23,0 92.23,11.27999977 139.39,36.47999977 a 12,12 0 0 1 4.85,16.08 11.3,11.3 0 0 1 -10.17,6.72 z M 11.64704,185.2812 a 11.73,11.73 0 0 1 -6.7000003,-2.16 12.26,12.26 0 0 1 -2.78,-16.8 c 22.8900003,-33.6 52.0000003,-60 86.6900003,-78.480001 72.58,-38.84 165.51,-39.12 238.32,-0.24 34.68,18.480001 63.8,44.640001 86.69,78.000001 a 12.29,12.29 0 0 1 -2.78,16.8 11.26,11.26 0 0 1 -16.18,-2.88 c -20.8,-30.24 -47.15,-54 -78.36,-70.56 -66.34,-35.280001 -151.18,-35.280001 -217.29,0.24 -31.44,16.8 -57.79,40.8 -78.59,71 a 10,10 0 0 1 -9.02,5.08 z m 144.47,289.72 a 10.66,10.66 0 0 1 -8.09,-3.6 c -20.11,-20.92 -31.01,-34.4 -46.46,-63.4 -16,-29.52 -24.27,-65.52 -24.27,-104.16 0,-71.28 58.71,-129.36 130.84,-129.36 72.13,0 130.88,58.08 130.88,129.36 a 11.56,11.56 0 1 1 -23.11,0 c 0,-58.08 -48.32,-105.36 -107.72,-105.36 -59.4,0 -107.77,47.28 -107.77,105.36 0,34.56 7.39,66.48 21.49,92.4 14.8,27.6 25,39.36 42.77,58.08 a 12.67,12.67 0 0 1 0,17 12.44,12.44 0 0 1 -8.56,3.68 z m 165.75,-44.4 c -27.51,0 -51.78,-7.2 -71.66,-21.36 a 129.1,129.1 0 0 1 -55,-105.36 11.57,11.57 0 1 1 23.12,0 104.28,104.28 0 0 0 44.84,85.44 c 16.41,11.52 35.6,17 58.72,17 a 147.41,147.41 0 0 0 24,-2.4 c 6.24,-1.2 12.25,3.12 13.4,9.84 a 11.92,11.92 0 0 1 -9.47,13.92 152.28,152.28 0 0 1 -27.95,2.88 z m -46.47,49.4 a 13,13 0 0 1 -3,-0.48 c -36.76,-10.56 -60.8,-24.72 -86,-50.4 -32.37,-33.36 -50.16,-77.76 -50.16,-125.28 0,-38.88 31.9,-70.56 71.19,-70.56 39.29,0 71.2,31.68 71.2,70.56 0,25.68 21.5,46.56 48.08,46.56 26.58,0 48.08,-20.88 48.08,-46.56 0,-90.48 -75.13,-163.92 -167.59,-163.92 -65.65,0 -125.75,37.92 -152.79,96.72 -9,19.44 -13.64,42.24 -13.64,67.2 0,18.72 1.61,48.24 15.48,86.64 2.32,6.24 -0.69,13.2 -6.7,15.36 a 11.34,11.34 0 0 1 -14.79,-7 276.39,276.39 0 0 1 -16.88,-95 c 0,-28.8 5.32,-55 15.72,-77.76 30.75,-67 98.94,-110.4 173.6,-110.4 105.18,0 190.71,84.24 190.71,187.92 0,38.88 -31.9,70.56 -71.2,70.56 -39.3,0 -71.2,-31.68 -71.2,-70.56 0.01,-25.68 -21.49,-46.6 -48.07,-46.6 -26.58,0 -48.08,20.88 -48.08,46.56 0,41 15.26,79.44 43.23,108.24 22,22.56 43,35 75.59,44.4 6.24,1.68 9.71,8.4 8.09,14.64 a 11.39,11.39 0 0 1 -10.87,9.16 z"
     id="path4" />
</svg>
